<mxfile host="app.diagrams.net" agent="Mozilla/5.0 (Windows NT 10.0; Win64; x64; rv:132.0) Gecko/20100101 Firefox/132.0" version="24.8.6">
  <diagram id="C5RBs43oDa-KdzZeNtuy" name="Page-1">
    <mxGraphModel dx="1619" dy="1133" grid="1" gridSize="10" guides="1" tooltips="1" connect="1" arrows="1" fold="1" page="1" pageScale="1" pageWidth="827" pageHeight="1169" math="0" shadow="0">
      <root>
        <mxCell id="WIyWlLk6GJQsqaUBKTNV-0" />
        <mxCell id="WIyWlLk6GJQsqaUBKTNV-1" parent="WIyWlLk6GJQsqaUBKTNV-0" />
        <mxCell id="oD9I4H4Df59zBqh2kMuC-9" style="edgeStyle=orthogonalEdgeStyle;rounded=0;orthogonalLoop=1;jettySize=auto;html=1;exitX=0.5;exitY=1;exitDx=0;exitDy=0;entryX=0.5;entryY=0;entryDx=0;entryDy=0;" edge="1" parent="WIyWlLk6GJQsqaUBKTNV-1" source="WIyWlLk6GJQsqaUBKTNV-3" target="WIyWlLk6GJQsqaUBKTNV-7">
          <mxGeometry relative="1" as="geometry" />
        </mxCell>
        <mxCell id="WIyWlLk6GJQsqaUBKTNV-3" value="&lt;div&gt;Frontend (UI)&lt;/div&gt;&lt;div&gt;(React / Angular / Vue)&lt;br&gt;&lt;/div&gt;" style="rounded=1;whiteSpace=wrap;html=1;fontSize=12;glass=0;strokeWidth=1;shadow=0;" parent="WIyWlLk6GJQsqaUBKTNV-1" vertex="1">
          <mxGeometry x="280" y="40" width="200" height="80" as="geometry" />
        </mxCell>
        <mxCell id="oD9I4H4Df59zBqh2kMuC-10" style="edgeStyle=orthogonalEdgeStyle;rounded=0;orthogonalLoop=1;jettySize=auto;html=1;" edge="1" parent="WIyWlLk6GJQsqaUBKTNV-1" source="WIyWlLk6GJQsqaUBKTNV-7">
          <mxGeometry relative="1" as="geometry">
            <mxPoint x="40" y="270" as="targetPoint" />
          </mxGeometry>
        </mxCell>
        <mxCell id="oD9I4H4Df59zBqh2kMuC-11" style="edgeStyle=orthogonalEdgeStyle;rounded=0;orthogonalLoop=1;jettySize=auto;html=1;entryX=0.5;entryY=0;entryDx=0;entryDy=0;" edge="1" parent="WIyWlLk6GJQsqaUBKTNV-1" source="WIyWlLk6GJQsqaUBKTNV-7" target="oD9I4H4Df59zBqh2kMuC-4">
          <mxGeometry relative="1" as="geometry" />
        </mxCell>
        <mxCell id="oD9I4H4Df59zBqh2kMuC-12" style="edgeStyle=orthogonalEdgeStyle;rounded=0;orthogonalLoop=1;jettySize=auto;html=1;entryX=0.75;entryY=0;entryDx=0;entryDy=0;" edge="1" parent="WIyWlLk6GJQsqaUBKTNV-1" source="WIyWlLk6GJQsqaUBKTNV-7" target="oD9I4H4Df59zBqh2kMuC-3">
          <mxGeometry relative="1" as="geometry" />
        </mxCell>
        <mxCell id="oD9I4H4Df59zBqh2kMuC-13" style="edgeStyle=orthogonalEdgeStyle;rounded=0;orthogonalLoop=1;jettySize=auto;html=1;entryX=0.5;entryY=0;entryDx=0;entryDy=0;" edge="1" parent="WIyWlLk6GJQsqaUBKTNV-1" source="WIyWlLk6GJQsqaUBKTNV-7" target="oD9I4H4Df59zBqh2kMuC-1">
          <mxGeometry relative="1" as="geometry" />
        </mxCell>
        <mxCell id="WIyWlLk6GJQsqaUBKTNV-7" value="&lt;div&gt;API Gateway Service&lt;/div&gt;&lt;div&gt;(Routing &amp;amp; Load Balancing)&lt;br&gt;&lt;/div&gt;" style="rounded=1;whiteSpace=wrap;html=1;fontSize=12;glass=0;strokeWidth=1;shadow=0;" parent="WIyWlLk6GJQsqaUBKTNV-1" vertex="1">
          <mxGeometry x="280" y="160" width="200" height="80" as="geometry" />
        </mxCell>
        <mxCell id="oD9I4H4Df59zBqh2kMuC-15" value="" style="edgeStyle=orthogonalEdgeStyle;rounded=0;orthogonalLoop=1;jettySize=auto;html=1;" edge="1" parent="WIyWlLk6GJQsqaUBKTNV-1" source="oD9I4H4Df59zBqh2kMuC-1" target="oD9I4H4Df59zBqh2kMuC-5">
          <mxGeometry relative="1" as="geometry" />
        </mxCell>
        <mxCell id="oD9I4H4Df59zBqh2kMuC-1" value="&lt;div&gt;Approval Service (Workflow Management)&lt;/div&gt;" style="rounded=1;whiteSpace=wrap;html=1;fontSize=12;glass=0;strokeWidth=1;shadow=0;" vertex="1" parent="WIyWlLk6GJQsqaUBKTNV-1">
          <mxGeometry x="150" y="280" width="210" height="80" as="geometry" />
        </mxCell>
        <mxCell id="oD9I4H4Df59zBqh2kMuC-2" value="&lt;div&gt;Contract Service (Spring Boot)&lt;/div&gt;" style="rounded=1;whiteSpace=wrap;html=1;fontSize=12;glass=0;strokeWidth=1;shadow=0;" vertex="1" parent="WIyWlLk6GJQsqaUBKTNV-1">
          <mxGeometry x="-90" y="280" width="210" height="80" as="geometry" />
        </mxCell>
        <mxCell id="oD9I4H4Df59zBqh2kMuC-14" value="" style="edgeStyle=orthogonalEdgeStyle;rounded=0;orthogonalLoop=1;jettySize=auto;html=1;" edge="1" parent="WIyWlLk6GJQsqaUBKTNV-1" source="oD9I4H4Df59zBqh2kMuC-3" target="oD9I4H4Df59zBqh2kMuC-6">
          <mxGeometry relative="1" as="geometry" />
        </mxCell>
        <mxCell id="oD9I4H4Df59zBqh2kMuC-3" value="Search Service (Full-text)" style="rounded=1;whiteSpace=wrap;html=1;fontSize=12;glass=0;strokeWidth=1;shadow=0;" vertex="1" parent="WIyWlLk6GJQsqaUBKTNV-1">
          <mxGeometry x="400" y="280" width="200" height="80" as="geometry" />
        </mxCell>
        <mxCell id="oD9I4H4Df59zBqh2kMuC-4" value="&lt;div&gt;Audit Service (Audit Logs)&lt;/div&gt;" style="rounded=1;whiteSpace=wrap;html=1;fontSize=12;glass=0;strokeWidth=1;shadow=0;" vertex="1" parent="WIyWlLk6GJQsqaUBKTNV-1">
          <mxGeometry x="640" y="280" width="210" height="80" as="geometry" />
        </mxCell>
        <mxCell id="oD9I4H4Df59zBqh2kMuC-5" value="&lt;div&gt;Document Service (Storage/Versioning)&lt;/div&gt;" style="rounded=1;whiteSpace=wrap;html=1;fontSize=12;glass=0;strokeWidth=1;shadow=0;" vertex="1" parent="WIyWlLk6GJQsqaUBKTNV-1">
          <mxGeometry x="150" y="400" width="210" height="80" as="geometry" />
        </mxCell>
        <mxCell id="oD9I4H4Df59zBqh2kMuC-6" value="&lt;div&gt;Report Service (Report Generation)&lt;/div&gt;" style="rounded=1;whiteSpace=wrap;html=1;fontSize=12;glass=0;strokeWidth=1;shadow=0;" vertex="1" parent="WIyWlLk6GJQsqaUBKTNV-1">
          <mxGeometry x="400" y="400" width="200" height="80" as="geometry" />
        </mxCell>
        <mxCell id="oD9I4H4Df59zBqh2kMuC-16" value="&lt;div&gt;External Configurations and Monitoring&lt;/div&gt;" style="rounded=1;whiteSpace=wrap;html=1;fontSize=12;glass=0;strokeWidth=1;shadow=0;" vertex="1" parent="WIyWlLk6GJQsqaUBKTNV-1">
          <mxGeometry x="160" y="560" width="440" height="150" as="geometry" />
        </mxCell>
        <mxCell id="oD9I4H4Df59zBqh2kMuC-17" value="" style="endArrow=none;html=1;rounded=0;exitX=0.629;exitY=0.977;exitDx=0;exitDy=0;exitPerimeter=0;entryX=-0.001;entryY=0.536;entryDx=0;entryDy=0;entryPerimeter=0;" edge="1" parent="WIyWlLk6GJQsqaUBKTNV-1" source="oD9I4H4Df59zBqh2kMuC-2" target="oD9I4H4Df59zBqh2kMuC-16">
          <mxGeometry width="50" height="50" relative="1" as="geometry">
            <mxPoint x="30" y="690" as="sourcePoint" />
            <mxPoint x="140" y="800" as="targetPoint" />
            <Array as="points">
              <mxPoint x="40" y="640" />
            </Array>
          </mxGeometry>
        </mxCell>
      </root>
    </mxGraphModel>
  </diagram>
</mxfile>
